<?xml version="1.0" encoding="UTF-8" standalone="no"?>
<svg
   xmlns:dc="http://purl.org/dc/elements/1.1/"
   xmlns:cc="http://creativecommons.org/ns#"
   xmlns:rdf="http://www.w3.org/1999/02/22-rdf-syntax-ns#"
   xmlns:svg="http://www.w3.org/2000/svg"
   xmlns="http://www.w3.org/2000/svg"
   id="svg8"
   version="1.1"
   viewBox="0 0 86.444664 8.326993"
   height="8.326993mm"
   width="86.444664mm">
  <defs
     id="defs2">
    <style
       id="style815">.cls-1{fill:#1e9cd8;}.cls-2{fill:#14c3f4;}</style>
  </defs>
  <metadata
     id="metadata5">
    <rdf:RDF>
      <cc:Work
         rdf:about="">
        <dc:format>image/svg+xml</dc:format>
        <dc:type
           rdf:resource="http://purl.org/dc/dcmitype/StillImage" />
        <dc:title></dc:title>
      </cc:Work>
    </rdf:RDF>
  </metadata>
  <g
     transform="translate(-75.462192,-105.36031)"
     id="layer1">
    <g
       transform="matrix(0.26458333,0,0,0.26458333,71.059525,61.902968)"
       id="g854">
      <path
         style="fill:#1e9cd8"
         class="cls-1"
         d="m 16.64,195.2 v -30.5 h 6.49 v 30.5 z"
         id="path821" />
      <path
         style="fill:#1e9cd8"
         class="cls-1"
         d="M 61.64,195.2 47.1,175.31 v 19.89 h -6.5 v -30.5 h 6.68 l 14.13,19.16 v -19.15 h 6.49 v 30.5 z"
         id="path823" />
      <path
         style="fill:#1e9cd8"
         class="cls-1"
         d="m 83.27,190.9 3.57,-5.07 a 13.4,13.4 0 0 0 9.69,4.17 c 3.61,0 5.3,-1.6 5.3,-3.38 0,-5.3 -17.56,-1.6 -17.56,-13.08 0,-5.08 4.39,-9.28 11.57,-9.28 a 17,17 0 0 1 11.89,4.25 l -3.61,4.85 A 13.1,13.1 0 0 0 95.25,170 c -2.74,0 -4.3,1.19 -4.3,3 0,4.8 17.51,1.55 17.51,12.94 0,5.58 -4,9.78 -12.21,9.78 -5.9,0.03 -10.1,-1.94 -12.98,-4.82 z"
         id="path825" />
      <path
         style="fill:#1e9cd8"
         class="cls-1"
         d="m 130.69,195.2 v -24.78 h -8.92 v -5.72 h 24.32 v 5.72 h -8.87 v 24.78 z"
         id="path827" />
      <path
         style="fill:#1e9cd8"
         class="cls-1"
         d="m 179.84,195.2 -1.92,-5.2 h -13.08 l -1.92,5.17 h -7.36 l 11.75,-30.5 h 8.14 l 11.75,30.5 z m -8.46,-24 -4.75,13.12 h 9.51 z"
         id="path829" />
      <path
         style="fill:#14c3f4"
         class="cls-2"
         d="m 201.47,195.2 v -30.5 h 14.27 c 6.63,0 10.24,4.48 10.24,9.83 0,5.35 -3.66,9.78 -10.24,9.78 H 208 v 10.89 z m 17.88,-20.67 c 0,-2.56 -2,-4.11 -4.53,-4.11 H 208 v 8.18 h 6.86 c 2.52,0.01 4.49,-1.55 4.49,-4.06 z"
         id="path831" />
      <path
         style="fill:#14c3f4"
         class="cls-2"
         d="m 259.17,195.2 -1.92,-5.2 h -13.07 l -1.92,5.17 h -7.36 l 11.75,-30.5 h 8.14 l 11.75,30.5 z m -8.46,-24 -4.71,13.12 h 9.51 z"
         id="path833" />
      <path
         style="fill:#14c3f4"
         class="cls-2"
         d="M 284.92,195.2 V 170.42 H 276 v -5.72 h 24.32 v 5.72 h -8.87 v 24.78 z"
         id="path835" />
      <path
         style="fill:#14c3f4"
         class="cls-2"
         d="m 336.82,195.2 v -12.85 h -14.4 v 12.85 h -6.49 v -30.5 h 6.49 v 12 h 14.4 v -12 h 6.54 v 30.5 z"
         id="path837" />
    </g>
  </g>
</svg>
